<svg width="197" height="48" viewBox="0 0 197 48" fill="none" xmlns="http://www.w3.org/2000/svg">
<g clip-path="url(#clip0_39_506)">
<path d="M12.7946 23.9999L25.589 11.2055L38.3835 23.9999L25.589 36.7944L12.7946 23.9999Z" fill="#5D5FEF"/>
<path d="M46.9132 15.4703L38.3835 23.9999V11.2055H25.589L34.1187 2.6758H46.9132V15.4703Z" fill="#5D5FEF"/>
<path d="M46.9132 32.5296L38.3835 23.9999V36.7944H25.589L34.1187 45.3241H46.9132V32.5296Z" fill="#5D5FEF"/>
<path d="M4.26489 32.5296L12.7946 23.9999V36.7944H25.589L17.0594 45.3241H4.26489L4.26489 32.5296Z" fill="#5D5FEF"/>
<path d="M4.26489 15.4703L12.7946 23.9999V11.2055H25.589L17.0594 2.6758H4.26489L4.26489 15.4703Z" fill="#5D5FEF"/>
<path d="M62.2509 34.0653V14.0156H67.0466V30.2992H77.5863V34.0653H62.2509ZM85.4838 34.3091C83.5872 34.3091 82.097 33.7898 81.0132 32.7512C79.9385 31.7036 79.4011 30.0824 79.4011 27.8878V19.2447H84.0884V27.6439C84.0884 28.6284 84.2962 29.3328 84.7116 29.7573C85.1361 30.1818 85.7547 30.394 86.5676 30.394C87.1727 30.394 87.7687 30.2811 88.3558 30.0553C88.9428 29.8205 89.4441 29.4909 89.8595 29.0664V19.2447H94.5468V34.0653H90.713L90.4285 32.6293H90.2388C89.5886 33.1712 88.8525 33.5866 88.0306 33.8756C87.2178 34.1646 86.3689 34.3091 85.4838 34.3091ZM116.598 19.0144C118.35 19.0144 119.727 19.5383 120.73 20.5859C121.732 21.6245 122.233 23.2366 122.233 25.4222V34.0653H117.573V25.6796C117.573 24.6952 117.374 23.9907 116.977 23.5663C116.589 23.1418 116.029 22.9296 115.297 22.9296C114.159 22.9296 113.256 23.2908 112.588 24.0133C112.642 24.4288 112.669 24.8803 112.669 25.368V34.0653H108.077V25.6796C108.077 24.6862 107.896 23.9817 107.535 23.5663C107.173 23.1418 106.632 22.9296 105.909 22.9296C105.331 22.9296 104.794 23.0424 104.297 23.2682C103.8 23.494 103.376 23.8237 103.023 24.2572V34.0653H98.3362V19.2447H102.17L102.468 20.6943H102.685C103.263 20.1524 103.945 19.737 104.73 19.4479C105.516 19.1589 106.374 19.0144 107.304 19.0144C108.226 19.0144 109.043 19.177 109.756 19.5021C110.479 19.8182 111.07 20.3059 111.531 20.9652C112.272 20.2879 113.075 19.7957 113.942 19.4886C114.809 19.1725 115.695 19.0144 116.598 19.0144ZM125.88 34.0653V19.2447H130.568V34.0653H125.88ZM128.224 17.1043C126.318 17.1043 125.365 16.3502 125.365 14.8419C125.365 14.1014 125.6 13.5369 126.07 13.1485C126.549 12.7602 127.267 12.566 128.224 12.566C129.181 12.566 129.895 12.7602 130.364 13.1485C130.843 13.5369 131.082 14.1014 131.082 14.8419C131.082 16.3502 130.129 17.1043 128.224 17.1043ZM134.59 14.4084C136.794 13.9839 139.052 13.7717 141.364 13.7717C144.651 13.7717 147.103 14.3587 148.72 15.5328C150.337 16.6979 151.145 18.5222 151.145 21.0059C151.145 23.4172 150.355 25.2326 148.774 26.4518C147.194 27.671 144.823 28.2807 141.662 28.2807C141.003 28.2807 140.244 28.2581 139.386 28.2129V34.0653H134.59V14.4084ZM141.703 24.921C142.841 24.921 143.757 24.79 144.453 24.5281C145.157 24.2572 145.672 23.8372 145.997 23.2682C146.331 22.6993 146.498 21.9496 146.498 21.0194C146.498 19.6647 146.119 18.6803 145.36 18.0661C144.602 17.443 143.419 17.1314 141.811 17.1314C140.971 17.1314 140.163 17.1946 139.386 17.321V24.772C140.109 24.8713 140.881 24.921 141.703 24.921ZM159.45 19.0144C161.283 19.0144 162.755 19.2222 163.866 19.6376C164.986 20.0531 165.812 20.7394 166.345 21.6968C166.887 22.6541 167.158 23.9636 167.158 25.6254V34.0653H163.27L162.958 32.6699H162.728C162.204 33.2118 161.549 33.6273 160.764 33.9163C159.987 34.1962 159.142 34.3362 158.23 34.3362C157.056 34.3362 156.058 34.1556 155.236 33.7943C154.415 33.424 153.796 32.9138 153.38 32.2635C152.965 31.6133 152.757 30.8636 152.757 30.0147C152.757 28.6148 153.308 27.5311 154.41 26.7634C155.512 25.9957 157.241 25.5351 159.599 25.3816L162.565 25.1513C162.547 24.4468 162.407 23.8959 162.145 23.4985C161.883 23.1011 161.473 22.8167 160.913 22.6451C160.362 22.4735 159.608 22.3877 158.65 22.3877C157.973 22.3877 157.223 22.4464 156.401 22.5638C155.58 22.6722 154.807 22.8347 154.085 23.0515V19.7189C154.889 19.4841 155.765 19.308 156.713 19.1906C157.67 19.0731 158.583 19.0144 159.45 19.0144ZM159.68 31.2746C160.195 31.2746 160.7 31.1978 161.197 31.0443C161.703 30.8817 162.159 30.6424 162.565 30.3263V27.6575L160.019 27.8607C159.079 27.942 158.406 28.1271 158 28.4161C157.603 28.7051 157.404 29.1116 157.404 29.6354C157.404 30.1502 157.594 30.5521 157.973 30.8411C158.352 31.1301 158.921 31.2746 159.68 31.2746ZM182.418 19.2447H186.997L178.299 40.026H173.707L176.227 34.0653H175.116L168.925 19.2447H173.883L178.11 30.1366L182.418 19.2447Z" fill="#5D5FEF"/>
</g>
<defs>
<clipPath id="clip0_39_506">
<rect width="196.658" height="47.0364" fill="white" transform="translate(0 0.481796)"/>
</clipPath>
</defs>
</svg>
